<svg xmlns="http://www.w3.org/2000/svg" viewBox="0 0 40 40" fill="none">
  <defs>
    <linearGradient id="a" x1="6" y1="4" x2="32" y2="38" gradientUnits="userSpaceOnUse">
      <stop stop-color="#fff"/><stop offset="0.22" stop-color="#f4f4f5"/><stop offset="0.55" stop-color="#d4d4d8"/><stop offset="1" stop-color="#71717a"/>
    </linearGradient>
    <linearGradient id="b" x1="4" y1="4" x2="38" y2="38" gradientUnits="userSpaceOnUse">
      <stop stop-color="#fffef0"/><stop offset="0.22" stop-color="#fef08a"/><stop offset="0.48" stop-color="#fbbf24"/><stop offset="0.72" stop-color="#f59e0b"/><stop offset="1" stop-color="#c2410c"/>
    </linearGradient>
    <radialGradient id="c" cx="0" cy="0" r="1" gradientUnits="userSpaceOnUse" gradientTransform="translate(20 11) rotate(90) scale(26 30)">
      <stop stop-color="rgba(255,255,255,0.2)"/><stop offset="0.35" stop-color="rgba(255,255,255,0.06)"/><stop offset="1" stop-color="rgba(0,0,0,0.45)"/>
    </radialGradient>
    <linearGradient id="d" x1="20" y1="26" x2="20" y2="38" gradientUnits="userSpaceOnUse">
      <stop stop-color="#fbbf24" stop-opacity="0"/><stop offset="1" stop-color="#b45309" stop-opacity="0.55"/>
    </linearGradient>
  </defs>
  <path d="M20 3.65 L36.05 20 L20 36.35 L3.95 20 Z" stroke="url(#b)" stroke-opacity="0.72" stroke-width="1.05" stroke-linejoin="round" fill="url(#c)"/>
  <path d="M20 6.2 L32.9 20 L20 33.8 L7.1 20 Z" stroke="rgba(255,255,255,0.1)" stroke-width="0.5" fill="none"/>
  <path d="M6.8 23.2 Q20 34.2 33.2 23.2" stroke="url(#b)" stroke-width="1.2" stroke-linecap="round" fill="none" opacity="0.7"/>
  <path d="M8.5 21.2 Q20 31 31.5 21.2" stroke="url(#d)" stroke-width="0.85" stroke-linecap="round" stroke-dasharray="2 5" fill="none" opacity="0.42"/>
  <path fill-rule="evenodd" clip-rule="evenodd" d="M22.4 7.2 L10.2 25.4H17.1L7.8 37.8L30.2 16.4H23.4L22.4 7.2Z" fill="url(#a)"/>
  <path d="M21.6 8.4 L18.2 18.5 L16.8 25.4H21.2L18.6 31.8L30.2 16.4H24.2L21.6 8.4Z" fill="url(#b)" opacity="0.32"/>
</svg>
